<svg width="949" height="999" viewBox="0 0 949 999" fill="none" xmlns="http://www.w3.org/2000/svg">
<g filter="url(#filter0_d_29_4)">
<circle cx="548" cy="100" r="23" fill="#4A34CD"/>
<circle cx="524" cy="54" r="14" fill="#4A34CD"/>
<circle cx="564.5" cy="139.5" r="7.5" fill="#4A34CD"/>
<circle cx="877.5" cy="165.5" r="18.5" fill="#4A34CD"/>
<circle cx="864" cy="200" r="7" fill="#4A34CD"/>
<circle cx="827.5" cy="24.5" r="12.5" fill="#4A34CD"/>
<circle cx="639.5" cy="9.5" r="9.5" fill="#4A34CD"/>
<path fill-rule="evenodd" clip-rule="evenodd" d="M857 135C857 209.558 796.558 270 722 270C647.442 270 587 209.558 587 135C587 60.4416 647.442 0 722 0C796.558 0 857 60.4416 857 135ZM780 210.5C780 220.165 772.165 228 762.5 228C752.835 228 745 220.165 745 210.5C745 200.835 752.835 193 762.5 193C772.165 193 780 200.835 780 210.5ZM701 192C717.569 192 731 178.569 731 162C731 145.431 717.569 132 701 132C684.431 132 671 145.431 671 162C671 178.569 684.431 192 701 192Z" fill="#4A34CD"/>
<circle cx="870" cy="134" r="5" fill="#4A34CD"/>
<circle cx="583.5" cy="93.5" r="4.5" fill="#4A34CD"/>
<circle cx="548.5" cy="61.5" r="3.5" fill="#4A34CD"/>
<circle cx="541.5" cy="33.5" r="6.5" fill="#4A34CD"/>
<circle cx="704" cy="353" r="41" fill="#4A34CD"/>
<circle cx="754" cy="324" r="9" fill="#4A34CD"/>
<circle cx="758.5" cy="305.5" r="4.5" fill="#4A34CD"/>
<circle cx="585.45" cy="392.449" r="7.61933" transform="rotate(30.8717 585.45 392.449)" fill="#4A34CD"/>
<circle cx="595.756" cy="381.225" r="3.80966" transform="rotate(30.8717 595.756 381.225)" fill="#4A34CD"/>
<circle cx="573.5" cy="421.5" r="18.5" fill="#4A34CD"/>
<circle cx="313" cy="402" r="8" fill="#4A34CD"/>
<circle cx="317" cy="387" r="4" fill="#4A34CD"/>
<path fill-rule="evenodd" clip-rule="evenodd" d="M373 605C433.751 605 483 555.751 483 495C483 434.249 433.751 385 373 385C355.436 385 338.833 389.117 324.104 396.438C325.314 398.69 326 401.265 326 404C326 412.837 318.837 420 310 420C305.208 420 300.908 417.893 297.975 414.555C276.455 434.634 263 463.246 263 495C263 555.751 312.249 605 373 605ZM425 530C440.464 530 453 517.464 453 502C453 486.536 440.464 474 425 474C409.536 474 397 486.536 397 502C397 517.464 409.536 530 425 530ZM335 483C346.598 483 356 473.598 356 462C356 450.402 346.598 441 335 441C323.402 441 314 450.402 314 462C314 473.598 323.402 483 335 483Z" fill="#4A34CD"/>
<circle cx="452" cy="287" r="30" fill="#4A34CD"/>
<circle cx="475.5" cy="248.5" r="9.5" fill="#4A34CD"/>
<circle cx="452" cy="245" r="3" fill="#4A34CD"/>
<circle cx="467.5" cy="207.5" r="8.5" fill="#4A34CD"/>
<circle cx="482" cy="223" r="3" fill="#4A34CD"/>
<circle cx="463.5" cy="178.5" r="4.5" fill="#4A34CD"/>
<circle cx="485" cy="325" r="8" fill="#4A34CD"/>
<circle cx="498" cy="312" r="5" fill="#4A34CD"/>
<circle cx="501" cy="297" r="2" fill="#4A34CD"/>
<circle cx="106.5" cy="560.5" r="8.5" fill="#4A34CD"/>
<circle cx="110.5" cy="542.5" r="4.5" fill="#4A34CD"/>
<circle cx="145.5" cy="573.5" r="7.5" fill="#4A34CD"/>
<circle cx="151" cy="560" r="2" fill="#4A34CD"/>
<circle cx="122.5" cy="529.5" r="4.5" fill="#4A34CD"/>
<path fill-rule="evenodd" clip-rule="evenodd" d="M115 619C127.703 619 138 608.703 138 596C138 583.297 127.703 573 115 573C102.297 573 92 583.297 92 596C92 608.703 102.297 619 115 619ZM112.5 605C115.538 605 118 602.538 118 599.5C118 596.462 115.538 594 112.5 594C109.462 594 107 596.462 107 599.5C107 602.538 109.462 605 112.5 605Z" fill="#4A34CD"/>
<circle cx="368.5" cy="861.5" r="36.5" fill="#4A34CD"/>
<circle cx="392" cy="807" r="13" fill="#4A34CD"/>
<circle cx="383.5" cy="781.5" r="8.5" fill="#4A34CD"/>
<circle cx="397.5" cy="765.5" r="7.5" fill="#4A34CD"/>
<circle cx="401" cy="751" r="4" fill="#4A34CD"/>
<circle cx="321" cy="843" r="11" fill="#4A34CD"/>
<circle cx="308" cy="825" r="6" fill="#4A34CD"/>
<circle cx="317.5" cy="808.5" r="3.5" fill="#4A34CD"/>
<circle cx="181.5" cy="739.5" r="21.5" fill="#4A34CD"/>
<circle cx="196" cy="706" r="7" fill="#4A34CD"/>
<circle cx="184" cy="689" r="5" fill="#4A34CD"/>
<circle cx="181.5" cy="848.5" r="5.5" fill="#4A34CD"/>
<circle cx="159.5" cy="884.5" r="11.5" fill="#4A34CD"/>
<circle cx="97" cy="829" r="5" fill="#4A34CD"/>
<circle cx="103.5" cy="814.5" r="3.5" fill="#4A34CD"/>
<circle cx="174.5" cy="868.5" r="7.5" fill="#4A34CD"/>
<circle cx="184" cy="836" r="3" fill="#4A34CD"/>
<circle cx="164.5" cy="856.5" r="2.5" fill="#4A34CD"/>
<circle cx="188.5" cy="858.5" r="2.5" fill="#4A34CD"/>
<path fill-rule="evenodd" clip-rule="evenodd" d="M107 832.5C107 838.299 102.299 843 96.5 843C90.701 843 86 838.299 86 832.5C86 830.895 86.3601 829.374 87.004 828.014C86.5038 828.005 86.0024 828 85.5 828C40.4888 828 4 864.489 4 909.5C4 954.511 40.4888 991 85.5 991C130.511 991 167 954.511 167 909.5C167 905.844 166.759 902.244 166.293 898.715C164.361 899.542 162.234 900 160 900C151.163 900 144 892.837 144 884C144 876.559 149.079 870.304 155.96 868.514C145.308 850.242 127.752 836.489 106.868 830.83C106.955 831.374 107 831.932 107 832.5ZM75.5 944C84.6127 944 92 936.613 92 927.5C92 918.387 84.6127 911 75.5 911C66.3873 911 59 918.387 59 927.5C59 936.613 66.3873 944 75.5 944Z" fill="#4A34CD"/>
<circle cx="616.5" cy="625.5" r="23.5" fill="#4A34CD"/>
<circle cx="642.5" cy="598.5" r="8.5" fill="#4A34CD"/>
<circle cx="655.5" cy="567.5" r="6.5" fill="#4A34CD"/>
<circle cx="643.5" cy="579.5" r="5.5" fill="#4A34CD"/>
<circle cx="651.5" cy="742.5" r="13.5" fill="#4A34CD"/>
<circle cx="524.5" cy="799.5" r="8.5" fill="#4A34CD"/>
<circle cx="532.5" cy="786.5" r="3.5" fill="#4A34CD"/>
<circle cx="924.5" cy="439.5" r="7.5" fill="#4A34CD"/>
<circle cx="934.5" cy="461.5" r="10.5" fill="#4A34CD"/>
<circle cx="816.5" cy="533.5" r="10.5" fill="#4A34CD"/>
<circle cx="812.5" cy="511.5" r="4.5" fill="#4A34CD"/>
</g>
<defs>
<filter id="filter0_d_29_4" x="0" y="0" width="949" height="999" filterUnits="userSpaceOnUse" color-interpolation-filters="sRGB">
<feFlood flood-opacity="0" result="BackgroundImageFix"/>
<feColorMatrix in="SourceAlpha" type="matrix" values="0 0 0 0 0 0 0 0 0 0 0 0 0 0 0 0 0 0 127 0" result="hardAlpha"/>
<feOffset dy="4"/>
<feGaussianBlur stdDeviation="2"/>
<feComposite in2="hardAlpha" operator="out"/>
<feColorMatrix type="matrix" values="0 0 0 0 0 0 0 0 0 0 0 0 0 0 0 0 0 0 0.25 0"/>
<feBlend mode="normal" in2="BackgroundImageFix" result="effect1_dropShadow_29_4"/>
<feBlend mode="normal" in="SourceGraphic" in2="effect1_dropShadow_29_4" result="shape"/>
</filter>
</defs>
</svg>
