<svg width="650" height="351" viewBox="0 0 650 351" fill="none" xmlns="http://www.w3.org/2000/svg">
<path d="M6.88636 93V23.1818H19.5341V82.3977H50.2841V93H6.88636ZM83.5568 94.0227C78.4432 94.0227 74.0114 92.8977 70.2614 90.6477C66.5114 88.3977 63.6023 85.25 61.5341 81.2045C59.4886 77.1591 58.4659 72.4318 58.4659 67.0227C58.4659 61.6136 59.4886 56.875 61.5341 52.8068C63.6023 48.7386 66.5114 45.5795 70.2614 43.3295C74.0114 41.0795 78.4432 39.9545 83.5568 39.9545C88.6705 39.9545 93.1023 41.0795 96.8523 43.3295C100.602 45.5795 103.5 48.7386 105.545 52.8068C107.614 56.875 108.648 61.6136 108.648 67.0227C108.648 72.4318 107.614 77.1591 105.545 81.2045C103.5 85.25 100.602 88.3977 96.8523 90.6477C93.1023 92.8977 88.6705 94.0227 83.5568 94.0227ZM83.625 84.1364C86.3977 84.1364 88.7159 83.375 90.5795 81.8523C92.4432 80.3068 93.8295 78.2386 94.7386 75.6477C95.6705 73.0568 96.1364 70.1705 96.1364 66.9886C96.1364 63.7841 95.6705 60.8864 94.7386 58.2955C93.8295 55.6818 92.4432 53.6023 90.5795 52.0568C88.7159 50.5114 86.3977 49.7386 83.625 49.7386C80.7841 49.7386 78.4205 50.5114 76.5341 52.0568C74.6705 53.6023 73.2727 55.6818 72.3409 58.2955C71.4318 60.8864 70.9773 63.7841 70.9773 66.9886C70.9773 70.1705 71.4318 73.0568 72.3409 75.6477C73.2727 78.2386 74.6705 80.3068 76.5341 81.8523C78.4205 83.375 80.7841 84.1364 83.625 84.1364ZM141.895 113.727C137.463 113.727 133.656 113.125 130.474 111.92C127.293 110.739 124.736 109.148 122.804 107.148C120.872 105.148 119.531 102.932 118.781 100.5L129.895 97.8068C130.395 98.8295 131.122 99.8409 132.077 100.841C133.031 101.864 134.315 102.705 135.929 103.364C137.565 104.045 139.622 104.386 142.099 104.386C145.599 104.386 148.497 103.534 150.793 101.83C153.088 100.148 154.236 97.375 154.236 93.5114V83.5909H153.622C152.986 84.8636 152.054 86.1705 150.827 87.5114C149.622 88.8523 148.02 89.9773 146.02 90.8864C144.043 91.7955 141.554 92.25 138.554 92.25C134.531 92.25 130.884 91.3068 127.611 89.4205C124.361 87.5114 121.77 84.6705 119.838 80.8977C117.929 77.1023 116.974 72.3523 116.974 66.6477C116.974 60.8977 117.929 56.0455 119.838 52.0909C121.77 48.1136 124.372 45.1023 127.645 43.0568C130.918 40.9886 134.565 39.9545 138.588 39.9545C141.656 39.9545 144.179 40.4773 146.156 41.5227C148.156 42.5455 149.747 43.7841 150.929 45.2386C152.111 46.6705 153.009 48.0227 153.622 49.2955H154.304V40.6364H166.474V93.8523C166.474 98.3295 165.406 102.034 163.27 104.966C161.134 107.898 158.213 110.091 154.509 111.545C150.804 113 146.599 113.727 141.895 113.727ZM141.997 82.5682C144.611 82.5682 146.838 81.9318 148.679 80.6591C150.52 79.3864 151.918 77.5568 152.872 75.1705C153.827 72.7841 154.304 69.9205 154.304 66.5795C154.304 63.2841 153.827 60.3977 152.872 57.9205C151.94 55.4432 150.554 53.5227 148.713 52.1591C146.895 50.7727 144.656 50.0795 141.997 50.0795C139.247 50.0795 136.952 50.7955 135.111 52.2273C133.27 53.6591 131.884 55.625 130.952 58.125C130.02 60.6023 129.554 63.4205 129.554 66.5795C129.554 69.7841 130.02 72.5909 130.952 75C131.906 77.3864 133.304 79.25 135.145 80.5909C137.009 81.9091 139.293 82.5682 141.997 82.5682ZM194.19 94.0568C190.872 94.0568 187.884 93.4659 185.224 92.2841C182.588 91.0795 180.497 89.3068 178.952 86.9659C177.429 84.625 176.668 81.7386 176.668 78.3068C176.668 75.3523 177.213 72.9091 178.304 70.9773C179.395 69.0455 180.884 67.5 182.77 66.3409C184.656 65.1818 186.781 64.3068 189.145 63.7159C191.531 63.1023 193.997 62.6591 196.543 62.3864C199.611 62.0682 202.099 61.7841 204.009 61.5341C205.918 61.2614 207.304 60.8523 208.168 60.3068C209.054 59.7386 209.497 58.8636 209.497 57.6818V57.4773C209.497 54.9091 208.736 52.9205 207.213 51.5114C205.69 50.1023 203.497 49.3977 200.634 49.3977C197.611 49.3977 195.213 50.0568 193.44 51.375C191.69 52.6932 190.509 54.25 189.895 56.0455L178.372 54.4091C179.281 51.2273 180.781 48.5682 182.872 46.4318C184.963 44.2727 187.52 42.6591 190.543 41.5909C193.565 40.5 196.906 39.9545 200.565 39.9545C203.088 39.9545 205.599 40.25 208.099 40.8409C210.599 41.4318 212.884 42.4091 214.952 43.7727C217.02 45.1136 218.679 46.9432 219.929 49.2614C221.202 51.5795 221.838 54.4773 221.838 57.9545V93H209.974V85.8068H209.565C208.815 87.2614 207.759 88.625 206.395 89.8977C205.054 91.1477 203.361 92.1591 201.315 92.9318C199.293 93.6818 196.918 94.0568 194.19 94.0568ZM197.395 84.9886C199.872 84.9886 202.02 84.5 203.838 83.5227C205.656 82.5227 207.054 81.2045 208.031 79.5682C209.031 77.9318 209.531 76.1477 209.531 74.2159V68.0455C209.145 68.3636 208.486 68.6591 207.554 68.9318C206.645 69.2045 205.622 69.4432 204.486 69.6477C203.349 69.8523 202.224 70.0341 201.111 70.1932C199.997 70.3523 199.031 70.4886 198.213 70.6023C196.372 70.8523 194.724 71.2614 193.27 71.8295C191.815 72.3977 190.668 73.1932 189.827 74.2159C188.986 75.2159 188.565 76.5114 188.565 78.1023C188.565 80.375 189.395 82.0909 191.054 83.25C192.713 84.4091 194.827 84.9886 197.395 84.9886ZM246.588 62.3182V93H234.247V40.6364H246.043V49.5341H246.656C247.861 46.6023 249.781 44.2727 252.418 42.5455C255.077 40.8182 258.361 39.9545 262.27 39.9545C265.884 39.9545 269.031 40.7273 271.713 42.2727C274.418 43.8182 276.509 46.0568 277.986 48.9886C279.486 51.9205 280.224 55.4773 280.202 59.6591V93H267.861V61.5682C267.861 58.0682 266.952 55.3295 265.134 53.3523C263.338 51.375 260.849 50.3864 257.668 50.3864C255.509 50.3864 253.588 50.8636 251.906 51.8182C250.247 52.75 248.94 54.1023 247.986 55.875C247.054 57.6477 246.588 59.7955 246.588 62.3182ZM6.88636 209V139.182H33.0682C38.4318 139.182 42.9318 140.114 46.5682 141.977C50.2273 143.841 52.9886 146.455 54.8523 149.818C56.7386 153.159 57.6818 157.057 57.6818 161.511C57.6818 165.989 56.7273 169.875 54.8182 173.17C52.9318 176.443 50.1477 178.977 46.4659 180.773C42.7841 182.545 38.2614 183.432 32.8977 183.432H14.25V172.932H31.1932C34.3295 172.932 36.8977 172.5 38.8977 171.636C40.8977 170.75 42.375 169.466 43.3295 167.784C44.3068 166.08 44.7955 163.989 44.7955 161.511C44.7955 159.034 44.3068 156.92 43.3295 155.17C42.3523 153.398 40.8636 152.057 38.8636 151.148C36.8636 150.216 34.2841 149.75 31.125 149.75H19.5341V209H6.88636ZM42.9545 177.364L60.2386 209H46.125L29.1477 177.364H42.9545ZM83.8466 210.057C80.5284 210.057 77.5398 209.466 74.8807 208.284C72.2443 207.08 70.1534 205.307 68.608 202.966C67.0852 200.625 66.3239 197.739 66.3239 194.307C66.3239 191.352 66.8693 188.909 67.9602 186.977C69.0511 185.045 70.5398 183.5 72.4261 182.341C74.3125 181.182 76.4375 180.307 78.8011 179.716C81.1875 179.102 83.6534 178.659 86.1989 178.386C89.267 178.068 91.7557 177.784 93.6648 177.534C95.5739 177.261 96.9602 176.852 97.8239 176.307C98.7102 175.739 99.1534 174.864 99.1534 173.682V173.477C99.1534 170.909 98.392 168.92 96.8693 167.511C95.3466 166.102 93.1534 165.398 90.2898 165.398C87.267 165.398 84.8693 166.057 83.0966 167.375C81.3466 168.693 80.1648 170.25 79.5511 172.045L68.0284 170.409C68.9375 167.227 70.4375 164.568 72.5284 162.432C74.6193 160.273 77.1761 158.659 80.1989 157.591C83.2216 156.5 86.5625 155.955 90.2216 155.955C92.7443 155.955 95.2557 156.25 97.7557 156.841C100.256 157.432 102.54 158.409 104.608 159.773C106.676 161.114 108.335 162.943 109.585 165.261C110.858 167.58 111.494 170.477 111.494 173.955V209H99.6307V201.807H99.2216C98.4716 203.261 97.4148 204.625 96.0511 205.898C94.7102 207.148 93.017 208.159 90.9716 208.932C88.9489 209.682 86.5739 210.057 83.8466 210.057ZM87.0511 200.989C89.5284 200.989 91.6761 200.5 93.4943 199.523C95.3125 198.523 96.7102 197.205 97.6875 195.568C98.6875 193.932 99.1875 192.148 99.1875 190.216V184.045C98.8011 184.364 98.142 184.659 97.2102 184.932C96.3011 185.205 95.2784 185.443 94.142 185.648C93.0057 185.852 91.8807 186.034 90.767 186.193C89.6534 186.352 88.6875 186.489 87.8693 186.602C86.0284 186.852 84.3807 187.261 82.9261 187.83C81.4716 188.398 80.3239 189.193 79.483 190.216C78.642 191.216 78.2216 192.511 78.2216 194.102C78.2216 196.375 79.0511 198.091 80.7102 199.25C82.3693 200.409 84.483 200.989 87.0511 200.989ZM123.903 209V156.636H135.699V165.534H136.312C137.403 162.534 139.21 160.193 141.733 158.511C144.256 156.807 147.267 155.955 150.767 155.955C154.312 155.955 157.301 156.818 159.733 158.545C162.188 160.25 163.915 162.58 164.915 165.534H165.46C166.619 162.625 168.574 160.307 171.324 158.58C174.097 156.83 177.381 155.955 181.176 155.955C185.994 155.955 189.926 157.477 192.972 160.523C196.017 163.568 197.54 168.011 197.54 173.852V209H185.165V175.761C185.165 172.511 184.301 170.136 182.574 168.636C180.847 167.114 178.733 166.352 176.233 166.352C173.256 166.352 170.926 167.284 169.244 169.148C167.585 170.989 166.756 173.386 166.756 176.341V209H154.653V175.25C154.653 172.545 153.835 170.386 152.199 168.773C150.585 167.159 148.472 166.352 145.858 166.352C144.085 166.352 142.472 166.807 141.017 167.716C139.563 168.602 138.403 169.864 137.54 171.5C136.676 173.114 136.244 175 136.244 177.159V209H123.903ZM232.901 210.023C227.787 210.023 223.355 208.898 219.605 206.648C215.855 204.398 212.946 201.25 210.878 197.205C208.832 193.159 207.81 188.432 207.81 183.023C207.81 177.614 208.832 172.875 210.878 168.807C212.946 164.739 215.855 161.58 219.605 159.33C223.355 157.08 227.787 155.955 232.901 155.955C238.014 155.955 242.446 157.08 246.196 159.33C249.946 161.58 252.844 164.739 254.889 168.807C256.957 172.875 257.991 177.614 257.991 183.023C257.991 188.432 256.957 193.159 254.889 197.205C252.844 201.25 249.946 204.398 246.196 206.648C242.446 208.898 238.014 210.023 232.901 210.023ZM232.969 200.136C235.741 200.136 238.06 199.375 239.923 197.852C241.787 196.307 243.173 194.239 244.082 191.648C245.014 189.057 245.48 186.17 245.48 182.989C245.48 179.784 245.014 176.886 244.082 174.295C243.173 171.682 241.787 169.602 239.923 168.057C238.06 166.511 235.741 165.739 232.969 165.739C230.128 165.739 227.764 166.511 225.878 168.057C224.014 169.602 222.616 171.682 221.685 174.295C220.776 176.886 220.321 179.784 220.321 182.989C220.321 186.17 220.776 189.057 221.685 191.648C222.616 194.239 224.014 196.307 225.878 197.852C227.764 199.375 230.128 200.136 232.969 200.136ZM309.852 170.477L298.602 171.705C298.284 170.568 297.727 169.5 296.932 168.5C296.159 167.5 295.114 166.693 293.795 166.08C292.477 165.466 290.864 165.159 288.955 165.159C286.386 165.159 284.227 165.716 282.477 166.83C280.75 167.943 279.898 169.386 279.92 171.159C279.898 172.682 280.455 173.92 281.591 174.875C282.75 175.83 284.659 176.614 287.318 177.227L296.25 179.136C301.205 180.205 304.886 181.898 307.295 184.216C309.727 186.534 310.955 189.568 310.977 193.318C310.955 196.614 309.989 199.523 308.08 202.045C306.193 204.545 303.568 206.5 300.205 207.909C296.841 209.318 292.977 210.023 288.614 210.023C282.205 210.023 277.045 208.682 273.136 206C269.227 203.295 266.898 199.534 266.148 194.716L278.182 193.557C278.727 195.92 279.886 197.705 281.659 198.909C283.432 200.114 285.739 200.716 288.58 200.716C291.511 200.716 293.864 200.114 295.636 198.909C297.432 197.705 298.33 196.216 298.33 194.443C298.33 192.943 297.75 191.705 296.591 190.727C295.455 189.75 293.682 189 291.273 188.477L282.341 186.602C277.318 185.557 273.602 183.795 271.193 181.318C268.784 178.818 267.591 175.659 267.614 171.841C267.591 168.614 268.466 165.818 270.239 163.455C272.034 161.068 274.523 159.227 277.705 157.932C280.909 156.614 284.602 155.955 288.784 155.955C294.92 155.955 299.75 157.261 303.273 159.875C306.818 162.489 309.011 166.023 309.852 170.477Z" fill="white"/>
<path d="M12.3239 316.364V319.943H0.715909V316.364H12.3239ZM3.6179 336V314.51C3.6179 313.189 3.89063 312.089 4.43608 311.212C4.99006 310.334 5.73153 309.678 6.66051 309.243C7.58949 308.808 8.62074 308.591 9.75426 308.591C10.5554 308.591 11.267 308.655 11.8892 308.783C12.5114 308.911 12.9716 309.026 13.2699 309.128L12.3494 312.707C12.1534 312.648 11.9062 312.588 11.608 312.528C11.3097 312.46 10.9773 312.426 10.6108 312.426C9.75 312.426 9.14063 312.635 8.78267 313.053C8.43324 313.462 8.25852 314.05 8.25852 314.817V336H3.6179ZM28.4638 327.741V316.364H33.0916V336H28.6044V332.51H28.3999C27.9567 333.609 27.228 334.509 26.2138 335.207C25.2081 335.906 23.968 336.256 22.4936 336.256C21.2067 336.256 20.0689 335.97 19.0803 335.399C18.1001 334.82 17.3331 333.98 16.7791 332.881C16.2251 331.773 15.9482 330.435 15.9482 328.866V316.364H20.576V328.151C20.576 329.395 20.9169 330.384 21.5987 331.116C22.2805 331.849 23.1754 332.216 24.2834 332.216C24.9652 332.216 25.6257 332.05 26.2649 331.717C26.9041 331.385 27.4283 330.891 27.8374 330.234C28.255 329.57 28.4638 328.739 28.4638 327.741ZM42.4783 309.818V336H37.8505V309.818H42.4783ZM51.8651 309.818V336H47.2372V309.818H51.8651ZM81.0735 321.554L76.8548 322.014C76.7354 321.588 76.5266 321.188 76.2283 320.812C75.9386 320.438 75.5465 320.135 75.0522 319.905C74.5579 319.675 73.9528 319.56 73.2369 319.56C72.2738 319.56 71.4641 319.768 70.8079 320.186C70.1602 320.604 69.8406 321.145 69.8491 321.81C69.8406 322.381 70.0494 322.845 70.4755 323.203C70.9102 323.561 71.6261 323.855 72.6232 324.085L75.9727 324.801C77.8306 325.202 79.2113 325.837 80.1147 326.706C81.0266 327.575 81.4869 328.713 81.4954 330.119C81.4869 331.355 81.1246 332.446 80.4087 333.392C79.7013 334.33 78.717 335.062 77.4556 335.591C76.1942 336.119 74.7454 336.384 73.109 336.384C70.7056 336.384 68.771 335.881 67.305 334.875C65.8391 333.861 64.9656 332.45 64.6843 330.643L69.1971 330.209C69.4016 331.095 69.8363 331.764 70.5011 332.216C71.1658 332.668 72.0309 332.893 73.0962 332.893C74.1957 332.893 75.0778 332.668 75.7425 332.216C76.4158 331.764 76.7525 331.206 76.7525 330.541C76.7525 329.979 76.5352 329.514 76.1005 329.148C75.6744 328.781 75.0096 328.5 74.1062 328.304L70.7567 327.601C68.8732 327.209 67.4798 326.548 66.5763 325.619C65.6729 324.682 65.2255 323.497 65.234 322.065C65.2255 320.855 65.5536 319.807 66.2184 318.92C66.8917 318.026 67.8249 317.335 69.0181 316.849C70.2198 316.355 71.6048 316.108 73.1729 316.108C75.4741 316.108 77.2852 316.598 78.6062 317.578C79.9357 318.558 80.7582 319.884 81.0735 321.554ZM95.1168 316.364V319.943H83.8285V316.364H95.1168ZM86.6154 311.659H91.2433V330.094C91.2433 330.716 91.337 331.193 91.5245 331.526C91.7205 331.849 91.9762 332.071 92.2915 332.19C92.6069 332.31 92.9563 332.369 93.3398 332.369C93.6296 332.369 93.8938 332.348 94.1325 332.305C94.3796 332.263 94.5671 332.224 94.695 332.19L95.4748 335.808C95.2276 335.893 94.8739 335.987 94.4137 336.089C93.962 336.192 93.408 336.251 92.7518 336.268C91.5927 336.303 90.5487 336.128 89.6197 335.744C88.6907 335.352 87.9535 334.747 87.408 333.929C86.8711 333.111 86.6069 332.088 86.6154 330.861V311.659ZM104.638 336.396C103.393 336.396 102.273 336.175 101.276 335.732C100.287 335.28 99.5028 334.615 98.9233 333.737C98.3523 332.859 98.0668 331.777 98.0668 330.49C98.0668 329.382 98.2713 328.466 98.6804 327.741C99.0895 327.017 99.6477 326.438 100.355 326.003C101.063 325.568 101.859 325.24 102.746 325.018C103.641 324.788 104.565 324.622 105.52 324.52C106.67 324.401 107.604 324.294 108.32 324.2C109.036 324.098 109.555 323.945 109.879 323.74C110.212 323.527 110.378 323.199 110.378 322.756V322.679C110.378 321.716 110.092 320.97 109.521 320.442C108.95 319.913 108.128 319.649 107.054 319.649C105.92 319.649 105.021 319.896 104.357 320.391C103.7 320.885 103.257 321.469 103.027 322.142L98.706 321.528C99.0469 320.335 99.6094 319.338 100.393 318.537C101.178 317.727 102.136 317.122 103.27 316.722C104.403 316.312 105.656 316.108 107.028 316.108C107.974 316.108 108.916 316.219 109.854 316.44C110.791 316.662 111.648 317.028 112.423 317.54C113.199 318.043 113.821 318.729 114.29 319.598C114.767 320.467 115.006 321.554 115.006 322.858V336H110.557V333.303H110.403C110.122 333.848 109.726 334.359 109.214 334.837C108.712 335.305 108.077 335.685 107.31 335.974C106.551 336.256 105.661 336.396 104.638 336.396ZM105.839 332.996C106.768 332.996 107.574 332.812 108.256 332.446C108.938 332.071 109.462 331.577 109.828 330.963C110.203 330.349 110.391 329.68 110.391 328.956V326.642C110.246 326.761 109.999 326.872 109.649 326.974C109.308 327.077 108.925 327.166 108.499 327.243C108.072 327.32 107.651 327.388 107.233 327.447C106.815 327.507 106.453 327.558 106.146 327.601C105.456 327.695 104.838 327.848 104.293 328.061C103.747 328.274 103.317 328.572 103.001 328.956C102.686 329.331 102.528 329.817 102.528 330.413C102.528 331.266 102.839 331.909 103.462 332.344C104.084 332.778 104.876 332.996 105.839 332.996ZM128.224 336.384C126.264 336.384 124.581 335.953 123.175 335.092C121.777 334.232 120.699 333.043 119.94 331.526C119.19 330 118.815 328.244 118.815 326.259C118.815 324.264 119.199 322.504 119.966 320.979C120.733 319.445 121.815 318.251 123.213 317.399C124.619 316.538 126.281 316.108 128.199 316.108C129.793 316.108 131.203 316.402 132.43 316.99C133.666 317.57 134.651 318.392 135.384 319.457C136.116 320.514 136.534 321.75 136.636 323.165H132.213C132.034 322.219 131.608 321.43 130.935 320.8C130.27 320.161 129.379 319.841 128.263 319.841C127.317 319.841 126.486 320.097 125.77 320.608C125.054 321.111 124.496 321.835 124.095 322.781C123.703 323.727 123.507 324.861 123.507 326.182C123.507 327.52 123.703 328.67 124.095 329.634C124.487 330.588 125.037 331.325 125.744 331.845C126.46 332.357 127.3 332.612 128.263 332.612C128.945 332.612 129.554 332.484 130.091 332.229C130.636 331.964 131.092 331.585 131.459 331.091C131.825 330.597 132.077 329.996 132.213 329.288H136.636C136.526 330.678 136.116 331.909 135.409 332.983C134.702 334.048 133.739 334.884 132.52 335.489C131.301 336.085 129.869 336.384 128.224 336.384ZM144.655 329.838L144.642 324.251H145.384L152.441 316.364H157.848L149.168 326.028H148.209L144.655 329.838ZM140.436 336V309.818H145.064V336H140.436ZM152.76 336L146.368 327.064L149.488 323.804L158.296 336H152.76ZM177.149 336.345C175.607 336.345 174.226 335.949 173.007 335.156C171.788 334.364 170.825 333.213 170.118 331.705C169.411 330.196 169.057 328.364 169.057 326.207C169.057 324.026 169.415 322.185 170.131 320.685C170.855 319.176 171.831 318.038 173.058 317.271C174.286 316.496 175.653 316.108 177.162 316.108C178.313 316.108 179.259 316.304 180 316.696C180.741 317.08 181.33 317.544 181.764 318.089C182.199 318.626 182.536 319.134 182.774 319.611H182.966V309.818H187.607V336H183.055V332.906H182.774C182.536 333.384 182.19 333.891 181.739 334.428C181.287 334.956 180.69 335.408 179.949 335.783C179.207 336.158 178.274 336.345 177.149 336.345ZM178.44 332.548C179.42 332.548 180.256 332.284 180.946 331.756C181.636 331.219 182.161 330.473 182.518 329.518C182.876 328.564 183.055 327.452 183.055 326.182C183.055 324.912 182.876 323.808 182.518 322.871C182.169 321.933 181.649 321.205 180.959 320.685C180.277 320.165 179.438 319.905 178.44 319.905C177.409 319.905 176.548 320.173 175.858 320.71C175.168 321.247 174.648 321.989 174.298 322.935C173.949 323.881 173.774 324.963 173.774 326.182C173.774 327.409 173.949 328.504 174.298 329.467C174.656 330.422 175.18 331.176 175.871 331.73C176.57 332.276 177.426 332.548 178.44 332.548ZM201.231 336.384C199.262 336.384 197.562 335.974 196.13 335.156C194.707 334.33 193.612 333.162 192.845 331.653C192.078 330.136 191.694 328.351 191.694 326.297C191.694 324.277 192.078 322.504 192.845 320.979C193.62 319.445 194.703 318.251 196.092 317.399C197.481 316.538 199.113 316.108 200.988 316.108C202.199 316.108 203.341 316.304 204.414 316.696C205.497 317.08 206.451 317.676 207.278 318.486C208.113 319.295 208.77 320.327 209.247 321.58C209.724 322.824 209.963 324.307 209.963 326.028V327.447H193.868V324.328H205.527C205.518 323.442 205.326 322.653 204.951 321.963C204.576 321.264 204.052 320.714 203.379 320.314C202.714 319.913 201.939 319.713 201.052 319.713C200.106 319.713 199.275 319.943 198.559 320.403C197.843 320.855 197.285 321.452 196.885 322.193C196.493 322.926 196.292 323.732 196.284 324.609V327.332C196.284 328.474 196.493 329.455 196.91 330.273C197.328 331.082 197.912 331.705 198.662 332.139C199.412 332.565 200.289 332.778 201.295 332.778C201.968 332.778 202.578 332.685 203.123 332.497C203.669 332.301 204.142 332.016 204.542 331.641C204.943 331.266 205.245 330.801 205.45 330.247L209.771 330.733C209.498 331.875 208.978 332.872 208.211 333.724C207.453 334.568 206.481 335.224 205.297 335.693C204.112 336.153 202.757 336.384 201.231 336.384ZM230.855 316.364L223.862 336H218.749L211.756 316.364H216.69L221.203 330.95H221.408L225.933 316.364H230.855ZM242.083 336.384C240.114 336.384 238.414 335.974 236.982 335.156C235.559 334.33 234.463 333.162 233.696 331.653C232.929 330.136 232.546 328.351 232.546 326.297C232.546 324.277 232.929 322.504 233.696 320.979C234.472 319.445 235.554 318.251 236.944 317.399C238.333 316.538 239.965 316.108 241.84 316.108C243.05 316.108 244.192 316.304 245.266 316.696C246.348 317.08 247.303 317.676 248.13 318.486C248.965 319.295 249.621 320.327 250.098 321.58C250.576 322.824 250.814 324.307 250.814 326.028V327.447H234.719V324.328H246.378C246.37 323.442 246.178 322.653 245.803 321.963C245.428 321.264 244.904 320.714 244.23 320.314C243.566 319.913 242.79 319.713 241.904 319.713C240.958 319.713 240.127 319.943 239.411 320.403C238.695 320.855 238.137 321.452 237.736 322.193C237.344 322.926 237.144 323.732 237.135 324.609V327.332C237.135 328.474 237.344 329.455 237.762 330.273C238.179 331.082 238.763 331.705 239.513 332.139C240.263 332.565 241.141 332.778 242.147 332.778C242.82 332.778 243.429 332.685 243.975 332.497C244.52 332.301 244.993 332.016 245.394 331.641C245.794 331.266 246.097 330.801 246.301 330.247L250.623 330.733C250.35 331.875 249.83 332.872 249.063 333.724C248.304 334.568 247.333 335.224 246.148 335.693C244.963 336.153 243.608 336.384 242.083 336.384ZM259.357 309.818V336H254.729V309.818H259.357ZM272.681 336.384C270.764 336.384 269.102 335.962 267.696 335.118C266.289 334.274 265.199 333.094 264.423 331.577C263.656 330.06 263.272 328.287 263.272 326.259C263.272 324.23 263.656 322.453 264.423 320.928C265.199 319.402 266.289 318.217 267.696 317.374C269.102 316.53 270.764 316.108 272.681 316.108C274.599 316.108 276.261 316.53 277.667 317.374C279.074 318.217 280.16 319.402 280.927 320.928C281.703 322.453 282.091 324.23 282.091 326.259C282.091 328.287 281.703 330.06 280.927 331.577C280.16 333.094 279.074 334.274 277.667 335.118C276.261 335.962 274.599 336.384 272.681 336.384ZM272.707 332.676C273.747 332.676 274.616 332.391 275.315 331.82C276.014 331.24 276.534 330.464 276.875 329.493C277.224 328.521 277.399 327.439 277.399 326.246C277.399 325.044 277.224 323.957 276.875 322.986C276.534 322.006 276.014 321.226 275.315 320.646C274.616 320.067 273.747 319.777 272.707 319.777C271.642 319.777 270.755 320.067 270.048 320.646C269.349 321.226 268.825 322.006 268.475 322.986C268.135 323.957 267.964 325.044 267.964 326.246C267.964 327.439 268.135 328.521 268.475 329.493C268.825 330.464 269.349 331.24 270.048 331.82C270.755 332.391 271.642 332.676 272.707 332.676ZM286.018 343.364V316.364H290.57V319.611H290.838C291.077 319.134 291.413 318.626 291.848 318.089C292.283 317.544 292.871 317.08 293.612 316.696C294.354 316.304 295.3 316.108 296.45 316.108C297.967 316.108 299.335 316.496 300.554 317.271C301.781 318.038 302.753 319.176 303.469 320.685C304.193 322.185 304.555 324.026 304.555 326.207C304.555 328.364 304.202 330.196 303.494 331.705C302.787 333.213 301.824 334.364 300.605 335.156C299.386 335.949 298.006 336.345 296.463 336.345C295.338 336.345 294.405 336.158 293.663 335.783C292.922 335.408 292.325 334.956 291.874 334.428C291.43 333.891 291.085 333.384 290.838 332.906H290.646V343.364H286.018ZM290.557 326.182C290.557 327.452 290.736 328.564 291.094 329.518C291.46 330.473 291.984 331.219 292.666 331.756C293.357 332.284 294.192 332.548 295.172 332.548C296.195 332.548 297.051 332.276 297.741 331.73C298.432 331.176 298.952 330.422 299.301 329.467C299.659 328.504 299.838 327.409 299.838 326.182C299.838 324.963 299.663 323.881 299.314 322.935C298.964 321.989 298.445 321.247 297.754 320.71C297.064 320.173 296.203 319.905 295.172 319.905C294.183 319.905 293.344 320.165 292.653 320.685C291.963 321.205 291.439 321.933 291.081 322.871C290.732 323.808 290.557 324.912 290.557 326.182ZM317.212 336.384C315.243 336.384 313.543 335.974 312.111 335.156C310.688 334.33 309.592 333.162 308.825 331.653C308.058 330.136 307.675 328.351 307.675 326.297C307.675 324.277 308.058 322.504 308.825 320.979C309.601 319.445 310.683 318.251 312.072 317.399C313.462 316.538 315.094 316.108 316.969 316.108C318.179 316.108 319.321 316.304 320.395 316.696C321.477 317.08 322.432 317.676 323.259 318.486C324.094 319.295 324.75 320.327 325.227 321.58C325.705 322.824 325.943 324.307 325.943 326.028V327.447H309.848V324.328H321.507C321.499 323.442 321.307 322.653 320.932 321.963C320.557 321.264 320.033 320.714 319.359 320.314C318.695 319.913 317.919 319.713 317.033 319.713C316.087 319.713 315.256 319.943 314.54 320.403C313.824 320.855 313.266 321.452 312.865 322.193C312.473 322.926 312.273 323.732 312.264 324.609V327.332C312.264 328.474 312.473 329.455 312.891 330.273C313.308 331.082 313.892 331.705 314.642 332.139C315.392 332.565 316.27 332.778 317.276 332.778C317.949 332.778 318.558 332.685 319.104 332.497C319.649 332.301 320.122 332.016 320.523 331.641C320.923 331.266 321.226 330.801 321.43 330.247L325.751 330.733C325.479 331.875 324.959 332.872 324.192 333.724C323.433 334.568 322.462 335.224 321.277 335.693C320.092 336.153 318.737 336.384 317.212 336.384ZM329.858 336V316.364H334.346V319.636H334.55C334.908 318.503 335.522 317.629 336.391 317.016C337.269 316.393 338.27 316.082 339.395 316.082C339.651 316.082 339.936 316.095 340.252 316.121C340.576 316.138 340.844 316.168 341.057 316.21V320.467C340.861 320.399 340.55 320.339 340.124 320.288C339.706 320.229 339.301 320.199 338.909 320.199C338.066 320.199 337.307 320.382 336.634 320.749C335.969 321.107 335.445 321.605 335.061 322.244C334.678 322.884 334.486 323.621 334.486 324.456V336H329.858Z" fill="white"/>
</svg>
