<svg width="257" height="39" viewBox="0 0 257 39" fill="none" xmlns="http://www.w3.org/2000/svg">
<path d="M0.654474 30V0.90909H5.92436V25.5824H18.7369V30H0.654474ZM32.6005 30.4261C30.4698 30.4261 28.6232 29.9574 27.0607 29.0199C25.4982 28.0824 24.2861 26.7708 23.4244 25.0852C22.5721 23.3996 22.146 21.4299 22.146 19.1761C22.146 16.9223 22.5721 14.9479 23.4244 13.2528C24.2861 11.5578 25.4982 10.2415 27.0607 9.30398C28.6232 8.36648 30.4698 7.89773 32.6005 7.89773C34.7312 7.89773 36.5778 8.36648 38.1403 9.30398C39.7028 10.2415 40.9102 11.5578 41.7624 13.2528C42.6242 14.9479 43.055 16.9223 43.055 19.1761C43.055 21.4299 42.6242 23.3996 41.7624 25.0852C40.9102 26.7708 39.7028 28.0824 38.1403 29.0199C36.5778 29.9574 34.7312 30.4261 32.6005 30.4261ZM32.6289 26.3068C33.7842 26.3068 34.7501 25.9896 35.5266 25.3551C36.3031 24.7112 36.8808 23.8494 37.2596 22.7699C37.6478 21.6903 37.842 20.4877 37.842 19.1619C37.842 17.8267 37.6478 16.6193 37.2596 15.5398C36.8808 14.4508 36.3031 13.5843 35.5266 12.9403C34.7501 12.2964 33.7842 11.9744 32.6289 11.9744C31.4452 11.9744 30.4603 12.2964 29.6744 12.9403C28.8978 13.5843 28.3155 14.4508 27.9272 15.5398C27.5484 16.6193 27.359 17.8267 27.359 19.1619C27.359 20.4877 27.5484 21.6903 27.9272 22.7699C28.3155 23.8494 28.8978 24.7112 29.6744 25.3551C30.4603 25.9896 31.4452 26.3068 32.6289 26.3068ZM56.908 38.6364C55.0614 38.6364 53.4753 38.3854 52.1495 37.8835C50.8237 37.3911 49.7584 36.7282 48.9535 35.8949C48.1486 35.0616 47.5898 34.1383 47.2773 33.125L51.908 32.0028C52.1164 32.429 52.4194 32.8504 52.8171 33.267C53.2148 33.6932 53.7499 34.0436 54.4222 34.3182C55.104 34.6023 55.9611 34.7443 56.9933 34.7443C58.4516 34.7443 59.659 34.3892 60.6154 33.679C61.5719 32.9782 62.0501 31.8229 62.0501 30.2131V26.0795H61.7944C61.5292 26.6098 61.141 27.1544 60.6296 27.7131C60.1277 28.2718 59.4601 28.7405 58.6268 29.1193C57.8029 29.4981 56.766 29.6875 55.516 29.6875C53.8398 29.6875 52.32 29.2945 50.9563 28.5085C49.6022 27.7131 48.5226 26.5294 47.7177 24.9574C46.9222 23.3759 46.5245 21.3968 46.5245 19.0199C46.5245 16.6241 46.9222 14.6023 47.7177 12.9545C48.5226 11.2973 49.6069 10.0426 50.9705 9.19034C52.3342 8.3286 53.854 7.89773 55.5302 7.89773C56.8086 7.89773 57.8597 8.11553 58.6836 8.55114C59.5169 8.97727 60.1798 9.49337 60.6722 10.0994C61.1647 10.696 61.5387 11.2595 61.7944 11.7898H62.0785V8.18182H67.1495V30.3551C67.1495 32.2206 66.7044 33.7642 65.8143 34.9858C64.9241 36.2074 63.7073 37.1212 62.1637 37.7273C60.6201 38.3333 58.8683 38.6364 56.908 38.6364ZM56.9506 25.6534C58.0397 25.6534 58.9677 25.3883 59.7347 24.858C60.5018 24.3277 61.0842 23.5653 61.4819 22.571C61.8796 21.5767 62.0785 20.3835 62.0785 18.9915C62.0785 17.6184 61.8796 16.4157 61.4819 15.3835C61.0936 14.3513 60.516 13.5511 59.7489 12.983C58.9914 12.4053 58.0586 12.1165 56.9506 12.1165C55.8048 12.1165 54.8484 12.4148 54.0813 13.0114C53.3143 13.608 52.7366 14.4271 52.3484 15.4688C51.9601 16.5009 51.766 17.6752 51.766 18.9915C51.766 20.3267 51.9601 21.4962 52.3484 22.5C52.7461 23.4943 53.3285 24.2708 54.0955 24.8295C54.872 25.3788 55.8237 25.6534 56.9506 25.6534ZM78.6978 30.4403C77.3152 30.4403 76.07 30.1941 74.962 29.7017C73.8635 29.1998 72.9923 28.4612 72.3484 27.4858C71.7139 26.5104 71.3967 25.3078 71.3967 23.8778C71.3967 22.6468 71.6239 21.6288 72.0785 20.8239C72.533 20.0189 73.1533 19.375 73.9393 18.892C74.7253 18.4091 75.6107 18.0445 76.5955 17.7983C77.5898 17.5426 78.6173 17.358 79.6779 17.2443C80.9563 17.1117 81.9933 16.9934 82.7887 16.8892C83.5842 16.7756 84.1618 16.6051 84.5217 16.3778C84.891 16.1411 85.0756 15.7765 85.0756 15.2841V15.1989C85.0756 14.1288 84.7584 13.3002 84.1239 12.7131C83.4895 12.1259 82.5756 11.8324 81.3825 11.8324C80.123 11.8324 79.1239 12.107 78.3853 12.6562C77.6561 13.2055 77.1637 13.8542 76.908 14.6023L72.1069 13.9205C72.4857 12.5947 73.1107 11.4867 73.9819 10.5966C74.8531 9.69697 75.9184 9.02462 77.1779 8.57955C78.4374 8.125 79.8294 7.89773 81.354 7.89773C82.4052 7.89773 83.4516 8.02083 84.4933 8.26705C85.5349 8.51326 86.4866 8.92045 87.3484 9.48864C88.2101 10.0473 88.9014 10.8097 89.4222 11.7756C89.9525 12.7415 90.2177 13.9489 90.2177 15.3977V30H85.2745V27.0028H85.104C84.7915 27.6089 84.3512 28.1771 83.783 28.7074C83.2243 29.2282 82.5188 29.6496 81.6665 29.9716C80.8237 30.2841 79.8342 30.4403 78.6978 30.4403ZM80.033 26.6619C81.0652 26.6619 81.9601 26.4583 82.7177 26.0511C83.4753 25.6345 84.0576 25.0852 84.4648 24.4034C84.8815 23.7216 85.0898 22.9782 85.0898 22.1733V19.6023C84.9289 19.7348 84.6542 19.858 84.266 19.9716C83.8872 20.0852 83.4611 20.1847 82.9876 20.2699C82.5141 20.3551 82.0453 20.4309 81.5813 20.4972C81.1173 20.5634 80.7148 20.6203 80.3739 20.6676C79.6069 20.7718 78.9203 20.9422 78.3143 21.179C77.7082 21.4157 77.23 21.7472 76.8796 22.1733C76.5292 22.59 76.354 23.1297 76.354 23.7926C76.354 24.7396 76.6997 25.4545 77.391 25.9375C78.0823 26.4205 78.963 26.6619 80.033 26.6619ZM100.53 17.2159V30H95.3881V8.18182H100.303V11.8892H100.559C101.06 10.6676 101.861 9.69697 102.959 8.97727C104.067 8.25758 105.435 7.89773 107.064 7.89773C108.57 7.89773 109.882 8.2197 110.999 8.86364C112.126 9.50758 112.997 10.4403 113.613 11.6619C114.238 12.8835 114.545 14.3655 114.536 16.108V30H109.394V16.9034C109.394 15.4451 109.015 14.304 108.257 13.4801C107.509 12.6562 106.472 12.2443 105.147 12.2443C104.247 12.2443 103.447 12.4432 102.746 12.8409C102.055 13.2292 101.51 13.7926 101.113 14.5312C100.724 15.2699 100.53 16.1648 100.53 17.2159ZM129.912 30V0.90909H140.821C143.056 0.90909 144.931 1.29735 146.446 2.07386C147.971 2.85038 149.122 3.93939 149.898 5.34091C150.684 6.73295 151.077 8.35701 151.077 10.2131C151.077 12.0786 150.679 13.6979 149.884 15.071C149.098 16.4347 147.938 17.4905 146.404 18.2386C144.87 18.9773 142.985 19.3466 140.75 19.3466H132.98V14.9716H140.04C141.347 14.9716 142.417 14.7917 143.25 14.4318C144.084 14.0625 144.699 13.5275 145.097 12.8267C145.504 12.1165 145.708 11.2453 145.708 10.2131C145.708 9.18087 145.504 8.30019 145.097 7.57102C144.69 6.83239 144.069 6.27367 143.236 5.89489C142.403 5.50663 141.328 5.3125 140.012 5.3125H135.182V30H129.912ZM144.941 16.8182L152.142 30H146.262L139.188 16.8182H144.941ZM161.979 30.4403C160.596 30.4403 159.351 30.1941 158.243 29.7017C157.145 29.1998 156.274 28.4612 155.63 27.4858C154.995 26.5104 154.678 25.3078 154.678 23.8778C154.678 22.6468 154.905 21.6288 155.36 20.8239C155.814 20.0189 156.435 19.375 157.221 18.892C158.007 18.4091 158.892 18.0445 159.877 17.7983C160.871 17.5426 161.899 17.358 162.959 17.2443C164.238 17.1117 165.275 16.9934 166.07 16.8892C166.865 16.7756 167.443 16.6051 167.803 16.3778C168.172 16.1411 168.357 15.7765 168.357 15.2841V15.1989C168.357 14.1288 168.04 13.3002 167.405 12.7131C166.771 12.1259 165.857 11.8324 164.664 11.8324C163.404 11.8324 162.405 12.107 161.667 12.6562C160.937 13.2055 160.445 13.8542 160.189 14.6023L155.388 13.9205C155.767 12.5947 156.392 11.4867 157.263 10.5966C158.134 9.69697 159.2 9.02462 160.459 8.57955C161.719 8.125 163.111 7.89773 164.635 7.89773C165.686 7.89773 166.733 8.02083 167.775 8.26705C168.816 8.51326 169.768 8.92045 170.63 9.48864C171.491 10.0473 172.183 10.8097 172.703 11.7756C173.234 12.7415 173.499 13.9489 173.499 15.3977V30H168.556V27.0028H168.385C168.073 27.6089 167.632 28.1771 167.064 28.7074C166.506 29.2282 165.8 29.6496 164.948 29.9716C164.105 30.2841 163.115 30.4403 161.979 30.4403ZM163.314 26.6619C164.346 26.6619 165.241 26.4583 165.999 26.0511C166.757 25.6345 167.339 25.0852 167.746 24.4034C168.163 23.7216 168.371 22.9782 168.371 22.1733V19.6023C168.21 19.7348 167.935 19.858 167.547 19.9716C167.168 20.0852 166.742 20.1847 166.269 20.2699C165.795 20.3551 165.327 20.4309 164.863 20.4972C164.399 20.5634 163.996 20.6203 163.655 20.6676C162.888 20.7718 162.202 20.9422 161.596 21.179C160.989 21.4157 160.511 21.7472 160.161 22.1733C159.81 22.59 159.635 23.1297 159.635 23.7926C159.635 24.7396 159.981 25.4545 160.672 25.9375C161.364 26.4205 162.244 26.6619 163.314 26.6619ZM178.669 30V8.18182H183.584V11.8892H183.84C184.294 10.6392 185.047 9.66383 186.098 8.96307C187.15 8.25284 188.404 7.89773 189.863 7.89773C191.34 7.89773 192.585 8.25758 193.598 8.97727C194.621 9.6875 195.341 10.6581 195.757 11.8892H195.985C196.468 10.6771 197.282 9.71117 198.428 8.99148C199.583 8.26231 200.952 7.89773 202.533 7.89773C204.541 7.89773 206.179 8.5322 207.448 9.80114C208.717 11.0701 209.351 12.9214 209.351 15.3551V30H204.195V16.1506C204.195 14.7964 203.835 13.8068 203.115 13.1818C202.396 12.5473 201.515 12.2301 200.473 12.2301C199.233 12.2301 198.262 12.6184 197.561 13.3949C196.87 14.1619 196.525 15.161 196.525 16.392V30H191.482V15.9375C191.482 14.8106 191.141 13.911 190.459 13.2386C189.787 12.5663 188.906 12.2301 187.817 12.2301C187.078 12.2301 186.406 12.4195 185.8 12.7983C185.194 13.1676 184.711 13.6932 184.351 14.375C183.991 15.0473 183.811 15.8333 183.811 16.733V30H178.669ZM224.085 30.4261C221.954 30.4261 220.108 29.9574 218.545 29.0199C216.983 28.0824 215.77 26.7708 214.909 25.0852C214.056 23.3996 213.63 21.4299 213.63 19.1761C213.63 16.9223 214.056 14.9479 214.909 13.2528C215.77 11.5578 216.983 10.2415 218.545 9.30398C220.108 8.36648 221.954 7.89773 224.085 7.89773C226.216 7.89773 228.062 8.36648 229.625 9.30398C231.187 10.2415 232.395 11.5578 233.247 13.2528C234.109 14.9479 234.539 16.9223 234.539 19.1761C234.539 21.4299 234.109 23.3996 233.247 25.0852C232.395 26.7708 231.187 28.0824 229.625 29.0199C228.062 29.9574 226.216 30.4261 224.085 30.4261ZM224.113 26.3068C225.269 26.3068 226.234 25.9896 227.011 25.3551C227.788 24.7112 228.365 23.8494 228.744 22.7699C229.132 21.6903 229.326 20.4877 229.326 19.1619C229.326 17.8267 229.132 16.6193 228.744 15.5398C228.365 14.4508 227.788 13.5843 227.011 12.9403C226.234 12.2964 225.269 11.9744 224.113 11.9744C222.93 11.9744 221.945 12.2964 221.159 12.9403C220.382 13.5843 219.8 14.4508 219.412 15.5398C219.033 16.6193 218.843 17.8267 218.843 19.1619C218.843 20.4877 219.033 21.6903 219.412 22.7699C219.8 23.8494 220.382 24.7112 221.159 25.3551C221.945 25.9896 222.93 26.3068 224.113 26.3068ZM256.148 13.9489L251.461 14.4602C251.328 13.9867 251.096 13.5417 250.765 13.125C250.443 12.7083 250.007 12.3722 249.458 12.1165C248.908 11.8608 248.236 11.733 247.441 11.733C246.371 11.733 245.471 11.965 244.742 12.429C244.022 12.893 243.667 13.4943 243.676 14.233C243.667 14.8674 243.899 15.3835 244.373 15.7812C244.855 16.179 245.651 16.5057 246.759 16.7614L250.48 17.5568C252.545 18.0019 254.079 18.7074 255.083 19.6733C256.096 20.6392 256.607 21.9034 256.617 23.4659C256.607 24.839 256.205 26.0511 255.409 27.1023C254.623 28.1439 253.53 28.9583 252.128 29.5455C250.727 30.1326 249.117 30.4261 247.299 30.4261C244.628 30.4261 242.479 29.8674 240.85 28.75C239.221 27.6231 238.25 26.0559 237.938 24.0483L242.952 23.5653C243.179 24.5502 243.662 25.2936 244.401 25.7955C245.14 26.2973 246.101 26.5483 247.284 26.5483C248.506 26.5483 249.486 26.2973 250.225 25.7955C250.973 25.2936 251.347 24.6733 251.347 23.9347C251.347 23.3097 251.105 22.7936 250.623 22.3864C250.149 21.9792 249.41 21.6667 248.407 21.4489L244.685 20.6676C242.592 20.232 241.044 19.4981 240.04 18.4659C239.036 17.4242 238.539 16.108 238.549 14.517C238.539 13.1723 238.904 12.0076 239.642 11.0227C240.391 10.0284 241.427 9.26136 242.753 8.72159C244.088 8.17235 245.627 7.89773 247.37 7.89773C249.926 7.89773 251.939 8.44223 253.407 9.53125C254.884 10.6203 255.798 12.0928 256.148 13.9489Z" fill="white"/>
</svg>
